# xmcd
#
# Track frame offsets:
#	150
#	16809
#	39648
#	53334
#	70123
#	82694
#	93491
#	109019
#	129801
#	148771
#	166570
#	184562
#	200533
#	224737
#	250972
#	269191
#	283193
#	295682
# Disc length: 4416 seconds
# Revision: 1
# Processed by: cddbd v1.5.1PL2 Copyright (c) Steve Scherf et al.
#
# Submitted via: libkcddb 0.31
#
DISCID=00113e12
DTITLE=Various Artist - Truck 9 (2006)
DYEAR=2006
DGENRE=Unknown
TTITLE0=Electric Soft Parade - The Friday Before Christmas
TTITLE1=Youthmovies - The Naughtiest Girl Is A Monitor
TTITLE2=Shimura Curves - I Captured The Castle
TTITLE3=Get Cape, Wear Cape, Fly - The Lighthousekeeper
TTITLE4=Anat Ben David - Boom Boom
TTITLE5=:( - Negative Waves
TTITLE6=Foals - Two Steps, Twice
TTITLE7=Piney Gir and The Age Of Reason - Interim
TTITLE8=Rebecca Mosley - Take The Wheel
TTITLE9=Undertheigloo - Race To Get To Sleep
TTITLE10=Trademark - Stuck In A Rut (Radio Edit)
TTITLE11=The Research feat. Mi Mye - Golden Rules
TTITLE12=nervous_testpilot - Threshold (Oliver Horton Radio Dub)
TTITLE13=Forward Russia! - Sixteen
TTITLE14=65daysofstatic - Mean Low Water
TTITLE15=The Colony - Forever And Ever
TTITLE16=Brakes - You're So Pretty
TTITLE17=Danny George Wilson and The Champions Of The World - The Shadow Of The Wolf
EXTD=
EXTT0=
EXTT1=
EXTT2=
EXTT3=
EXTT4=
EXTT5=
EXTT6=
EXTT7=
EXTT8=
EXTT9=
EXTT10=
EXTT11=
EXTT12=
EXTT13=
EXTT14=
EXTT15=
EXTT16=
EXTT17=
PLAYORDER=
